<svg t="1600176142580" class="icon" viewBox="0 0 1024 1024" version="1.1" xmlns="http://www.w3.org/2000/svg" p-id="7397"
     width="64" height="64">
  <path
    d="M426.666667 533.333333a64 64 0 0 1 64 64v192a64 64 0 0 1-64 64h-192a64 64 0 0 1-64-64v-192a64 64 0 0 1 64-64h192z m416 202.666667v64H533.333333v-64h309.333334zM426.666667 597.333333h-192v192h192v-192z m416 0v64H533.333333v-64h309.333334zM426.666667 170.666667a64 64 0 0 1 64 64v192a64 64 0 0 1-64 64h-192a64 64 0 0 1-64-64v-192a64 64 0 0 1 64-64h192z m0 64h-192v192h192v-192z m416 128v64H533.333333v-64h309.333334z m0-138.666667v64H533.333333v-64h309.333334z"
    p-id="7398" fill="#ebebe4"></path>
</svg>
