 <svg id="sky_day" data-name="sky day" xmlns="http://www.w3.org/2000/svg" viewBox="0 0 1300 500">
  <defs>
  </defs>
  <style>
        .cls-1 {
          fill: #e8f3e2;
        }

        .cls-2 {
          fill: #faf4a8;
        }

        .cls-3 {
          fill: #cac277;
        }

        .cls-4 {
          fill: #f3ca76;
        }

        .cls-5 {
          fill: #fdf387;
        }

        .cls-6 {
          fill: #c2e4d8;
        }

        .cls-7 {
          fill: #aedccd;
        }

        .cls-8 {
          opacity: 0.5;
        }

        .cls-10,
        .cls-16,
        .cls-17,
        .cls-22,
        .cls-32,
        .cls-38,
        .cls-39,
        .cls-48,
        .cls-50,
        .cls-56,
        .cls-9 {
          fill: none;
        }

        .cls-16,
        .cls-17,
        .cls-9 {
          stroke: #dab6c4;
        }

        .cls-10,
        .cls-18,
        .cls-19,
        .cls-32,
        .cls-38,
        .cls-39,
        .cls-48,
        .cls-50,
        .cls-56,
        .cls-9 {
          stroke-miterlimit: 10;
        }

        .cls-10 {
          stroke: #e6d0d8;
        }

        .cls-11 {
          fill: #e7d0d8;
        }

        .cls-12 {
          fill: #dab6c4;
        }

        .cls-13,
        .cls-18 {
          fill: #b5d780;
        }

        .cls-14 {
          fill: #9cb17e;
        }

        .cls-15 {
          fill: #f16a83;
        }

        .cls-16,
        .cls-17 {
          stroke-linejoin: bevel;
          stroke-width: 2px;
        }

        .cls-17 {
          stroke-dasharray: 14.92 4.97;
        }

        .cls-18 {
          stroke: #b5d780;
        }

        .cls-18,
        .cls-19 {
          stroke-width: 0.25px;
        }

        .cls-19,
        .cls-21 {
          fill: #aec58b;
        }

        .cls-19 {
          stroke: #aec58b;
        }

        .cls-20 {
          fill: #7d8a71;
        }

        .cls-23 {
          fill: #f69eac;
        }

        .cls-24 {
          fill: #c38f98;
        }

        .cls-25 {
          fill: #816872;
        }

        .cls-26 {
          fill: #6d6066;
        }

        .cls-27 {
          fill: #806871;
        }

        .cls-28 {
          fill: #dbbf53;
        }

        .cls-29 {
          fill: #bfcf30;
        }

        .cls-30 {
          fill: #b29ea7;
        }

        .cls-31 {
          fill: #8d6876;
        }

        .cls-32,
        .cls-48 {
          stroke: #8d6876;
        }

        .cls-32 {
          opacity: 0.6;
        }

        .cls-33 {
          fill: #d2a849;
        }

        .cls-34 {
          fill: #e0b24d;
        }

        .cls-35 {
          fill: #bf6872;
        }

        .cls-36 {
          fill: #f0bf53;
        }

        .cls-37 {
          fill: #c6c49e;
        }

        .cls-38 {
          stroke: #f69eac;
        }

        .cls-39 {
          stroke: #c38f98;
        }

        .cls-40 {
          fill: #c5c072;
        }

        .cls-41 {
          fill: #fdf164;
        }

        .cls-42 {
          fill: #dbedd1;
        }

        .cls-43 {
          fill: #b2beaf;
        }

        .cls-44 {
          fill: #feeb19;
        }

        .cls-45 {
          fill: #9998c8;
        }

        .cls-46 {
          fill: #fef5b1;
        }

        .cls-47 {
          fill: #fac1c4;
        }

        .cls-49 {
          fill: #bfa264;
        }

        .cls-50 {
          stroke: #806871;
        }

        .cls-51 {
          fill: #ce9d2b;
        }

        .cls-52 {
          fill: #c06975;
        }

        .cls-53 {
          fill: #e0efd3;
        }

        .cls-54 {
          fill: #b9e1d2;
        }

        .cls-55 {
          fill: #fff;
        }

        .cls-56 {
          stroke: #231f20;
        }

        .cls-57 {
          fill: #ffefb8;
        }

        .cls-58 {
          fill: #dfedc9;
        }

        .cls-59 {
          fill: #f6d695;
        }

        .cls-60 {
          fill: #fcd6d9;
        }

        .cls-61 {
          fill: #a48691;
        }

        .cls-62 {
          fill: #eddee3;
        }

        .cls-63 {
          fill: #fcf8ca;
        }

        .cls-64 {
          fill: #b8b2d8;
        }

        .cls-65 {
          fill: #eff7ea;
        }

        .cls-66 {
          fill: #fef7b7;
        }

        .cls-67 {
          fill: #fee9a0;
        }

        .cls-99 {
          fill: #ddd162;
        }

        #needles {
          -webkit-animation: rotate 5s linear infinite;
                  animation: rotate 5s linear infinite;
          -webkit-transform-origin: center;
              -ms-transform-origin: center;
                  transform-origin: center;
          transform-box: fill-box;
        }

        @-webkit-keyframes rotate {
          0% {
            -webkit-transform: rotate(0deg);
                    transform: rotate(0deg)
          }
          100% {
            -webkit-transform: rotate(-180deg);
                    transform: rotate(-180deg)
          }
        }

        @keyframes rotate {
          0% {
            -webkit-transform: rotate(0deg);
                    transform: rotate(0deg)
          }
          100% {
            -webkit-transform: rotate(-180deg);
                    transform: rotate(-180deg)
          }
        }

        #arms {
          -webkit-animation: rotate-out 5s linear infinite;
                  animation: rotate-out 5s linear infinite;
          -webkit-transform-origin: center;
              -ms-transform-origin: center;
                  transform-origin: center;
          transform-box: fill-box;
        }

        @-webkit-keyframes rotate-out {
          0% {
            -webkit-transform: rotate(0deg);
                    transform: rotate(0deg)
          }
          100% {
            -webkit-transform: rotate(180deg);
                    transform: rotate(180deg)
          }
        }

        @keyframes rotate-out {
          0% {
            -webkit-transform: rotate(0deg);
                    transform: rotate(0deg)
          }
          100% {
            -webkit-transform: rotate(180deg);
                    transform: rotate(180deg)
          }
        }

        #cabins {
          -webkit-animation: cabin-transit 5s linear infinite;
                  animation: cabin-transit 5s linear infinite;
          -webkit-transform-origin: center;
              -ms-transform-origin: center;
                  transform-origin: center;
          transform-box: fill-box;
        }

        @-webkit-keyframes cabin-transit {
          0% {
            -webkit-transform: rotate(0deg);
                    transform: rotate(0deg)
          }
          100% {
            -webkit-transform: rotate(180deg);
                    transform: rotate(180deg)
          }
        }

        @keyframes cabin-transit {
          0% {
            -webkit-transform: rotate(0deg);
                    transform: rotate(0deg)
          }
          100% {
            -webkit-transform: rotate(180deg);
                    transform: rotate(180deg)
          }
        }

        .cabin {
          -webkit-animation: cabin-transform 5s linear infinite;
                  animation: cabin-transform 5s linear infinite;
          -webkit-transform-origin: center;
              -ms-transform-origin: center;
                  transform-origin: center;
          transform-box: fill-box;
        }

        @-webkit-keyframes cabin-transform {
          0% {
            -webkit-transform: rotate(0deg);
                    transform: rotate(0deg);
          }
          100% {
            -webkit-transform: rotate(-180deg);
                    transform: rotate(-180deg)
          }
        }

        @keyframes cabin-transform {
          0% {
            -webkit-transform: rotate(0deg);
                    transform: rotate(0deg);
          }
          100% {
            -webkit-transform: rotate(-180deg);
                    transform: rotate(-180deg)
          }
        }

        #balloon,
        #bunch_of_balloons1,
        #bunch_of_balloons {
          -webkit-animation: balloon-anim 5s linear infinite;
                  animation: balloon-anim 5s linear infinite;
          -webkit-transform-origin: center;
              -ms-transform-origin: center;
                  transform-origin: center;
          transform-box: fill-box;
        }

        @-webkit-keyframes balloon-anim {
          0% {
            -webkit-transform: rotate(0deg) translate(0);
                    transform: rotate(0deg) translate(0)
          }
          25% {
            -webkit-transform: rotate(2deg) translateY(5px);
                    transform: rotate(2deg) translateY(5px)
          }
          50% {
            -webkit-transform: rotate(-2deg) translateY(-5px);
                    transform: rotate(-2deg) translateY(-5px)
          }
          75% {
            -webkit-transform: rotate(-2deg) translateY(5px);
                    transform: rotate(-2deg) translateY(5px)
          }
          100% {
            -webkit-transform: rotate(0deg) translate(0);
                    transform: rotate(0deg) translate(0)
          }
        }

        @keyframes balloon-anim {
          0% {
            -webkit-transform: rotate(0deg) translate(0);
                    transform: rotate(0deg) translate(0)
          }
          25% {
            -webkit-transform: rotate(2deg) translateY(5px);
                    transform: rotate(2deg) translateY(5px)
          }
          50% {
            -webkit-transform: rotate(-2deg) translateY(-5px);
                    transform: rotate(-2deg) translateY(-5px)
          }
          75% {
            -webkit-transform: rotate(-2deg) translateY(5px);
                    transform: rotate(-2deg) translateY(5px)
          }
          100% {
            -webkit-transform: rotate(0deg) translate(0);
                    transform: rotate(0deg) translate(0)
          }
        }

        #clouds-front {
          -webkit-animation: cloud-transit infinite ease-in-out 5s;
                  animation: cloud-transit infinite ease-in-out 5s;
        }

        #clouds-back {
          -webkit-animation: cloud-transit-2 infinite ease-out 5s;
                  animation: cloud-transit-2 infinite ease-out 5s;
        }

        @-webkit-keyframes cloud-transit {
          0% {
            opacity: 0
          }
          50% {
            opacity: 1;
          }
          100% {
            -webkit-transform: translateX(-5%);
                    transform: translateX(-5%);
            opacity: 0;
          }
        }

        @keyframes cloud-transit {
          0% {
            opacity: 0
          }
          50% {
            opacity: 1;
          }
          100% {
            -webkit-transform: translateX(-5%);
                    transform: translateX(-5%);
            opacity: 0;
          }
        }

        @-webkit-keyframes cloud-transit-2 {
          0% {
            opacity: 0;
          }
          50% {
            opacity: 1;
          }
          100% {
            opacity: 0;
            -webkit-transform: translateX(5%);
                    transform: translateX(5%);
          }
        }

        @keyframes cloud-transit-2 {
          0% {
            opacity: 0;
          }
          50% {
            opacity: 1;
          }
          100% {
            opacity: 0;
            -webkit-transform: translateX(5%);
                    transform: translateX(5%);
          }
        }
  </style>
  <title>Header</title>
  <g>
    <!-- 绘制背景色 -->
    <rect id="day" class="cls-1" x="0" y="0" width="1300" height="500">
    </rect>

    <g id="sun">
      <path class="cls-2" d="M86.96236,149.54000000000002 A46.04988,46.04988 0 0 0 86.96236,57.44532"/>
      <path class="cls-99" d="M86.96236,57.44023 A46.04988,46.04988 0 1 0 86.96236,149.53491"/>
      <path class="cls-4" d="M86.96236,136.04288 A32.54768,32.54768 0 1 0 86.96236,70.92209"/>
      <path class="cls-5" d="M86.96236,70.94752 A32.54768,32.54768 0 0 0 86.96236,136.06831"/>
    </g>

    <g id="clouds-front">
        <g class="cloud-all">
            <path class="cls-6" d="M767.6894649887086,109.1401540184021 A26.77,26.77 0 0 0 764.6894649887086,109.1401540184021 C755.9494649887085,109.1401540184021 748.8494649887085,114.0301540184021 748.0794649887085,120.2501540184021 A28.73,28.73 0 0 0 737.3194649887085,118.2501540184021 C725.0794649887085,118.2501540184021 715.1494649887085,125.4701540184021 715.1494649887085,134.3801540184021 C715.1494649887085,134.3801540184021 715.1494649887085,134.4501540184021 715.1494649887085,134.48015401840212 C705.9694649887085,136.7501540184021 699.3694649887085,143.0601540184021 699.3694649887085,150.48015401840212 C699.3694649887085,159.8401540184021 709.7894649887085,167.4201540184021 722.6494649887085,167.4201540184021 L767.4994649887085,167.4201540184021 L767.6894649887086,109.1401540184021 z"/>
            <path class="cls-7" d="M767.4894649887085,109.1401540184021 A23.27,23.27 0 0 1 770.2994649887085,109.1401540184021 C779.0394649887085,109.1401540184021 786.1394649887085,114.0301540184021 786.9094649887085,120.2501540184021 A28.73,28.73 0 0 1 797.6694649887085,118.2501540184021 C809.9094649887085,118.2501540184021 819.8394649887085,125.4701540184021 819.8394649887085,134.3801540184021 C819.8394649887085,134.3801540184021 819.8394649887085,134.4501540184021 819.8394649887085,134.48015401840212 C829.0194649887085,136.7501540184021 835.6194649887085,143.0601540184021 835.6194649887085,150.48015401840212 C835.6194649887085,159.8401540184021 825.1994649887085,167.4201540184021 812.3394649887085,167.4201540184021 L767.4894649887085,167.4201540184021 L767.4894649887085,109.1401540184021 z"/>
        </g>
        <g class="cloud-all">
            <path class="cls-6" d="M1019.1694649887086,211.7601540184021 A12.85,12.85 0 0 0 1017.2594649887085,211.6201540184021 C1011.4494649887085,211.6201540184021 1006.7294649887085,215.6201540184021 1006.2594649887085,220.7901540184021 A15.89,15.89 0 0 0 999.1094649887084,219.1101540184021 C990.9694649887085,219.1101540184021 984.3794649887086,225.1101540184021 984.3794649887086,232.4301540184021 C984.3794649887086,232.4301540184021 984.3794649887086,232.4901540184021 984.3794649887086,232.5201540184021 C978.2794649887085,234.4001540184021 973.8894649887086,239.6101540184021 973.8894649887086,245.7501540184021 C973.8894649887086,253.4801540184021 980.8194649887084,259.7501540184021 989.3694649887084,259.7501540184021 L1019.3694649887084,259.7501540184021 L1019.1694649887086,211.7601540184021 z"/>
            <path class="cls-7" d="M1019.0794649887084,211.7501540184021 A12.8,12.8 0 0 1 1020.9894649887085,211.6201540184021 C1026.7994649887085,211.6201540184021 1031.5194649887085,215.6201540184021 1031.9894649887085,220.7901540184021 A15.89,15.89 0 0 1 1039.1394649887086,219.1101540184021 C1047.2794649887085,219.1101540184021 1053.8694649887084,225.1101540184021 1053.8694649887084,232.4301540184021 C1053.8694649887084,232.4301540184021 1053.8694649887084,232.4901540184021 1053.8694649887084,232.5201540184021 C1059.9694649887085,234.4001540184021 1064.3594649887084,239.6101540184021 1064.3594649887084,245.7501540184021 C1064.3594649887084,253.4801540184021 1057.4294649887086,259.7501540184021 1048.8794649887086,259.7501540184021 L1019.0694649887084,259.7501540184021 L1019.0794649887084,211.7501540184021 z"/>
        </g>
        <g class="cloud-all">
            <path class="cls-6" d="M228.9994649887085,214.6001540184021 A34.45,34.45 0 0 0 225.1694649887085,214.6001540184021 C215.44946498870848,214.6001540184021 207.5594649887085,220.7201540184021 206.70946498870848,228.5101540184021 A28.82,28.82 0 0 0 194.70946498870848,225.9601540184021 C181.09946498870852,225.9601540184021 170.0694649887085,234.9601540184021 170.0694649887085,246.1701540184021 C170.0694649887085,246.1701540184021 170.0694649887085,246.2601540184021 170.0694649887085,246.3001540184021 C159.8694649887085,249.1501540184021 152.51946498870848,257.0501540184021 152.51946498870848,266.3801540184021 C152.51946498870848,278.1001540184021 164.1094649887085,287.6001540184021 178.39946498870847,287.6001540184021 L228.9994649887085,287.6001540184021 L228.9994649887085,214.6001540184021 z"/>
            <path class="cls-7" d="M228.28946498870852,214.5401540184021 A23.12,23.12 0 0 1 231.4194649887085,214.5901540184021 C241.13946498870848,214.5901540184021 249.02946498870847,220.7101540184021 249.8794649887085,228.5001540184021 A28.82,28.82 0 0 1 261.8794649887085,225.9501540184021 C275.4894649887085,225.9501540184021 286.5194649887085,234.9501540184021 286.5194649887085,246.1601540184021 C286.5194649887085,246.1601540184021 286.5194649887085,246.2501540184021 286.5194649887085,246.2901540184021 C296.6794649887085,249.1401540184021 303.9994649887085,257.0001540184021 303.9994649887085,266.3701540184021 C303.9994649887085,278.09015401840213 292.4094649887085,287.59015401840213 278.1194649887085,287.59015401840213 L228.28946498870852,287.59015401840213 L228.28946498870852,214.5401540184021 z"/>
        </g>
    </g>

    <g id="clouds-back">
        <g class="cloud-all">
            <path class="cls-6" d="M1075.9,115.72988651275634 A25.08,25.08 0 0 0 1072.84,115.54988651275636 C1063.63,115.54988651275636 1056.15,120.83988651275635 1055.34,127.54988651275636 A29.61,29.61 0 0 0 1044,125.34988651275634 C1031.1,125.34988651275634 1020.64,133.15988651275634 1020.64,142.78988651275634 C1020.64,142.78988651275634 1020.64,142.85988651275636 1020.64,142.89988651275635 C1010.97,145.35988651275636 1004.01,152.17988651275635 1004.01,160.22988651275634 C1004.01,170.34988651275634 1015.01,178.53988651275634 1028.54,178.53988651275634 L1076.21,178.53988651275634 L1075.9,115.72988651275634 z"/>
            <path class="cls-7" d="M1075.8,115.71988651275635 A23.49,23.49 0 0 1 1078.8,115.54988651275636 C1088.01,115.54988651275636 1095.49,120.83988651275635 1096.3,127.54988651275636 A29.61,29.61 0 0 1 1107.64,125.34988651275634 C1120.54,125.34988651275634 1131,133.15988651275634 1131,142.78988651275634 C1131,142.78988651275634 1131,142.85988651275636 1131,142.89988651275635 C1140.67,145.35988651275636 1147.63,152.17988651275635 1147.63,160.22988651275634 C1147.63,170.34988651275634 1136.63,178.53988651275634 1123.1,178.53988651275634 L1075.8,178.53988651275634 L1075.8,115.71988651275635 z"/>
        </g>
        <g class="cloud-all">
            <path class="cls-6" d="M430.87,140.14988651275635 A21.33,21.33 0 0 0 428.48,140.07988651275636 C422.32,140.07988651275636 417.33,143.89988651275635 416.78,148.75988651275637 A18.49,18.49 0 0 0 409.2,147.16988651275634 C400.58,147.16988651275634 393.59,152.80988651275635 393.59,159.77988651275635 C393.59,159.77988651275635 393.59,159.82988651275636 393.59,159.85988651275636 C387.13,161.63988651275633 382.47,166.56988651275634 382.47,172.37988651275634 C382.47,179.68988651275635 389.81,185.61988651275635 398.86,185.61988651275635 C403.3,185.61988651275635 417.23,185.54988651275636 430.86,185.54988651275636 L430.86,140.14988651275635 L430.87,140.14988651275635 z"/>
            <path class="cls-7" d="M430.46,140.10988651275636 A14.69,14.69 0 0 1 432.46,140.10988651275636 C438.62,140.10988651275636 443.61,143.92988651275635 444.16,148.78988651275634 A18.49,18.49 0 0 1 451.74,147.19988651275634 C460.36,147.19988651275634 467.35,152.83988651275635 467.35,159.80988651275635 C467.35,159.80988651275635 467.35,159.85988651275636 467.35,159.88988651275633 C473.81,161.66988651275634 478.47,166.59988651275634 478.47,172.40988651275634 C478.47,179.71988651275635 471.13,185.64988651275635 462.08,185.64988651275635 C457.64,185.64988651275635 444.08,185.57988651275636 430.5,185.57988651275636 L430.5,140.10988651275636 L430.46,140.10988651275636 z"/>
        </g>
        <g class="cloud-all">
            <path class="cls-6" d="M539.43,36.76988651275635 A31.69,31.69 0 0 0 536.26,36.689886512756345 C528.26,36.689886512756345 521.81,41.20988651275634 521.11,46.95988651275634 A25.88,25.88 0 0 0 511.29,45.079886512756346 C500.12,45.079886512756346 491.07,51.75988651275635 491.07,59.99988651275635 C491.07,59.99988651275635 491.07,60.05988651275635 491.07,60.09988651275634 C482.7,62.19988651275635 476.67,68.03988651275635 476.67,74.92988651275635 C476.67,83.57988651275635 486.18,90.59988651275634 497.9,90.59988651275634 C503.65,90.59988651275634 521.77,90.51988651275634 539.41,90.51988651275634 L539.41,36.76988651275635 L539.43,36.76988651275635 z"/>
            <path class="cls-7" d="M538.82,36.71988651275635 A20.83,20.83 0 0 1 541.39,36.71988651275635 C549.39,36.71988651275635 555.84,41.23988651275634 556.54,46.98988651275634 A25.88,25.88 0 0 1 566.36,45.10988651275635 C577.53,45.10988651275635 586.58,51.789886512756354 586.58,60.02988651275635 C586.58,60.02988651275635 586.58,60.08988651275635 586.58,60.12988651275634 C594.93,62.19988651275635 601,67.99988651275635 601,74.91988651275635 C601,83.56988651275634 591.49,90.58988651275635 579.77,90.58988651275635 C574.02,90.58988651275635 556.51,90.50988651275635 538.87,90.50988651275635 L538.87,36.71988651275635 L538.82,36.71988651275635 z"/>
        </g>
    </g>

   <g>
    <g id="leg">
        <path d="M1072.30462,448.15626 S1117.62865,305.07969 1117.62865,305.07969 L1052.87038,448.1495 C1054.35076,448.21034 1072.24378,448.16978 1072.30462,448.15626 z" class="cls-2"/>
        <path d="M1182.38016,448.26442 L1117.65569,305.01209 L1117.65569,305.01209 L1163.04055,448.2509 C1162.4795,448.29822 1177.93225,448.34553 1182.38016,448.26442 z" class="cls-37"/>
    </g>
    <g class="cls-8">
        <polygon points="1117.81787109375,222.23236083984375 1123.7056884765625,275.4314880371094 1150.724365234375,229.2286834716797 1134.4603271484375,280.2241516113281 1177.93896484375,249.00091552734375 1142.34228515625,288.97125244140625 1194.7640380859375,278.1286315917969 1145.9791259765625,300.1721496582031 1198.2791748046875,311.5893249511719 1144.748779296875,311.8799743652344 1187.882568359375,343.5763854980469 1138.8609619140625,322.07366943359375 1165.3726806640625,368.5806579589844 1129.33642578125,328.9956359863281 1134.6429443359375,382.2623596191406 1117.81787109375,331.4426574707031 1100.9996337890625,382.2623596191406 1106.3060302734375,328.9956359863281 1070.2698974609375,368.5806579589844 1096.77490234375,322.07366943359375 1047.760009765625,343.5763854980469 1090.8939208984375,311.8799743652344 1037.363525390625,311.5893249511719 1089.66357421875,300.1721496582031 1040.8785400390625,278.1286315917969 1093.3004150390625,288.97125244140625 1057.70361328125,249.00091552734375 1101.1754150390625,280.2241516113281 1084.9183349609375,229.2286834716797 1111.9368896484375,275.4314880371094 1117.81787109375,222.23236083984375 "
                class="cls-38"/>
        <polygon points="1134.8997802734375,224.07777404785156 1129.2960205078125,277.3106994628906 1165.5550537109375,237.928466796875 1138.77978515625,284.2867736816406 1187.9232177734375,263.0611877441406 1144.6068115234375,294.5141906738281 1198.1370849609375,295.10906982421875 1145.7762451171875,306.22882080078125 1194.426025390625,328.542724609375 1142.0718994140625,317.4094543457031 1177.445556640625,357.5825500488281 1134.142578125,326.1092529296875 1150.115966796875,377.1993103027344 1123.7664794921875,330.8410339355469 1117.57470703125,384.0063781738281 1111.58544921875,330.7734375 1084.309814453125,376.8275146484375 1100.8577880859375,325.91998291015625 1057.2034912109375,356.89984130859375 1093.030029296875,317.1255187988281 1040.55419921875,327.67071533203125 1089.4541015625,305.9111328125 1037.2283935546875,294.1965026855469 1090.751953125,294.21002197265625 1047.8006591796875,262.2635192871094 1096.7005615234375,284.04339599609375 1070.452392578125,237.3944549560547 1106.265625,277.1755065917969 1101.2633056640625,223.88172912597656 1117.7908935546875,274.79608154296875 1134.8997802734375,224.07777404785156 " class="cls-38"/>
    </g>
    <g id="wheels">
        <circle r="107.39868927001953" cy="303.1328829406051" cx="1117.682724957744" class="cls-38"/>
        <path d="M1117.63541,385.29072 L1117.77736,385.29072 A82.15783,82.15783 0 1 0 1117.77736,220.97505 L1117.63541,220.97505 L1117.63541,207.21899 L1117.77736,207.21899 A95.9139,95.9139 0 0 1 1117.77736,399.05354 L1117.63541,399.05354 L1117.63541,385.29072 z" class="cls-35"/>
        <path d="M1117.81792,385.29072 L1117.67597,385.29072 A82.15783,82.15783 0 1 1 1117.67597,220.97505 L1117.81792,220.97505 L1117.81792,207.21899 L1117.67597,207.21899 A95.9139,95.9139 0 0 0 1117.67597,399.05354 L1117.81792,399.05354 L1117.81792,385.29072 z" class="cls-15"/>
        <path d="M1117.62865,273.55228 A29.58061,29.58061 0 0 1 1117.62865,332.71349 L1117.62865,273.55228 z" class="cls-37"/>
        <path d="M1117.63541,273.55228 A29.58061,29.58061 0 0 0 1117.63541,332.71349 L1117.63541,273.55228 z" class="cls-2"/>
    </g>
    <g id="arms">
        <line y2="212.45778315216015" x2="1060.0965332850315" y1="393.7539048404033" x1="1175.3432737273456" class="cls-39"/>
        <line y2="265.65690610840454" x2="1017.0032157696494" y1="340.46014557902714" x1="1218.4163120344851" class="cls-39"/>
        <line y2="340.46014557902714" x2="1016.9491378810026" y1="265.65690610840454" x1="1218.3622341458383" class="cls-39"/>
        <line y2="393.7539048404033" x2="1060.0221761881426" y1="212.45778315216015" x1="1175.2689166304563" class="cls-39"/>
        <line y2="410.5315697930588" x2="1117.682724957744" y1="195.7274363520706" x1="1117.682724957744" class="cls-39"/>
    </g>
    <g id="cabins">
        <g class="cabin">
            <path d="M1221.23512,340.97389 A16.70331,16.70331 0 0 0 1218.43659,340.73729 L1218.43659,343.31951 A17.80514,17.80514 0 0 1 1220.32256,343.42091 C1225.25716,344.01577 1228.5762,350.58623 1228.52888,355.10849 L1228.52888,355.10849 C1228.52888,359.68483 1224.9327,362.45633 1220.24144,362.36845 Q1219.3424,362.32789 1218.43659,362.32789 L1218.43659,375.91496 L1221.02557,375.91496 C1226.10213,375.74597 1230.24585,371.56169 1230.19177,366.74876 L1230.19177,354.77051 C1230.17825,350.01165 1226.77135,342.02164 1221.23512,340.97389 z" class="cls-40"/>
            <path d="M1215.63806,340.97389 A16.70331,16.70331 0 0 1 1218.43659,340.73729 L1218.43659,343.31951 A17.80514,17.80514 0 0 0 1216.55062,343.42091 C1211.61602,344.01577 1208.29699,350.58623 1208.34431,355.10849 L1208.34431,355.10849 C1208.34431,359.68483 1211.94048,362.45633 1216.63174,362.36845 Q1217.53079,362.32789 1218.43659,362.32789 L1218.43659,375.91496 L1215.84761,375.91496 C1210.77105,375.74597 1206.62733,371.56169 1206.68141,366.74876 L1206.68141,354.77051 C1206.68817,350.01165 1210.09508,342.02164 1215.63806,340.97389 z" class="cls-41"/>
        </g>
        <g class="cabin">
            <path d="M1019.5719200000001,340.97389 A16.70331,16.70331 0 0 0 1016.7733800000001,340.73729 L1016.7733800000001,343.31951 A17.80514,17.80514 0 0 1 1018.6593499999999,343.42091 C1023.5939599999999,344.01577 1026.91299,350.58623 1026.86567,355.10849 L1026.86567,355.10849 C1026.86567,359.68483 1023.2694899999999,362.45633 1018.5782300000001,362.36845 Q1017.6791900000001,362.32789 1016.7733800000001,362.32789 L1016.7733800000001,375.91496 L1019.3623600000001,375.91496 C1024.43893,375.74597 1028.58264,371.56169 1028.52857,366.74876 L1028.52857,354.77051 C1028.52181,350.01165 1025.10814,342.02164 1019.5719200000001,340.97389 z" class="cls-40"/>
            <path d="M1013.9748500000001,340.97389 A16.70331,16.70331 0 0 1 1016.7733800000001,340.73729 L1016.7733800000001,343.31951 A17.80514,17.80514 0 0 0 1014.88742,343.42091 C1009.95281,344.01577 1006.6337799999999,350.58623 1006.6811,355.10849 L1006.6811,355.10849 C1006.6811,359.68483 1010.27728,362.45633 1014.9685400000001,362.36845 Q1015.8675800000001,362.32789 1016.7733800000001,362.32789 L1016.7733800000001,375.91496 L1014.1844100000001,375.91496 C1009.1078399999999,375.74597 1004.9641300000001,371.56169 1005.0182,366.74876 L1005.0182,354.77051 C1005.02496,350.01165 1008.4386300000001,342.02164 1013.9748500000001,340.97389 z" class="cls-41"/>
        </g>
        <g class="cabin">
            <path d="M1019.74767,266.31936 A16.70331,16.70331 0 0 0 1016.9491399999999,266.08277 L1016.9491399999999,268.64471 A17.80514,17.80514 0 0 1 1018.8351,268.74611 C1023.76971,269.34096 1027.08874,275.91143 1027.04142,280.43369 L1027.04142,280.43369 C1027.04142,285.01003 1023.44524,287.78152 1018.7539899999999,287.69365 Q1017.8549399999999,287.65309 1016.9491399999999,287.65309 L1016.9491399999999,301.24016 L1019.51784,301.24016 C1024.5944,301.07116 1028.73812,296.88689 1028.68404,292.07395 L1028.68404,280.11598 C1028.69756,275.35713 1025.28389,267.36712 1019.74767,266.31936 z" class="cls-40"/>
            <path d="M1014.1506099999999,266.31936 A16.70331,16.70331 0 0 1 1016.9491399999999,266.08277 L1016.9491399999999,268.64471 A17.80514,17.80514 0 0 0 1015.0631699999999,268.74611 C1010.1285600000001,269.34096 1006.80953,275.91143 1006.8568499999999,280.43369 L1006.8568499999999,280.43369 C1006.8568499999999,285.01003 1010.4530299999999,287.78152 1015.14429,287.69365 Q1016.04333,287.65309 1016.9491399999999,287.65309 L1016.9491399999999,301.24016 L1014.36016,301.24016 C1009.2836,301.07116 1005.13988,296.88689 1005.1939600000001,292.07395 L1005.1939600000001,280.11598 C1005.20072,275.35713 1008.61438,267.36712 1014.1506099999999,266.31936 z" class="cls-41"/>
        </g>
        <g class="cabin">
            <path d="M1063.04378,213.13376 A16.70331,16.70331 0 0 0 1060.24525,212.89717 L1060.24525,215.45911 A17.80514,17.80514 0 0 1 1062.10417,215.5605 C1067.03878,216.15536 1070.35781,222.72582 1070.31049,227.24809 L1070.31049,227.24809 C1070.31049,231.82443 1066.71431,234.59592 1062.02306,234.50804 Q1061.12401,234.46748 1060.21821,234.46748 L1060.21821,248.05455 L1062.80719,248.05455 C1067.88375,247.88556 1072.02747,243.70128 1071.97339,238.88835 L1071.97339,226.93038 C1071.99367,222.17152 1068.58,214.20855 1063.04378,213.13376 z" class="cls-40"/>
            <path d="M1057.44672,213.13376 A16.70331,16.70331 0 0 1 1060.24525,212.89717 L1060.24525,215.45911 A17.80514,17.80514 0 0 0 1058.35928,215.5605 C1053.42467,216.15536 1050.10564,222.72582 1050.15296,227.24809 L1050.15296,227.24809 C1050.15296,231.82443 1053.74914,234.59592 1058.4404,234.50804 Q1059.33944,234.46748 1060.24525,234.46748 L1060.24525,248.05455 L1057.65627,248.05455 C1052.57971,247.88556 1048.43599,243.70128 1048.49007,238.88835 L1048.49007,226.93038 C1048.49683,222.17152 1051.91049,214.20855 1057.44672,213.13376 z" class="cls-41"/>
        </g>
        <g class="cabin">
            <path d="M1062.65171,394.15949 A16.70331,16.70331 0 0 0 1059.85318,393.9229 L1059.85318,396.48484 A17.80514,17.80514 0 0 1 1061.73915,396.58623 C1066.67376,397.18109 1069.99279,403.75155 1069.94547,408.27382 L1069.94547,408.27382 C1069.94547,412.85016 1066.34929,415.62165 1061.65803,415.53377 Q1060.75899,415.49322 1059.85318,415.49322 L1059.85318,429.08029 L1062.44216,429.08029 C1067.51872,428.91129 1071.66244,424.72702 1071.60836,419.91408 L1071.60836,407.95611 C1071.56781,403.1905 1068.18794,395.20049 1062.65171,394.15949 z" class="cls-40"/>
            <path d="M1057.05465,394.15949 A16.70331,16.70331 0 0 1 1059.85318,393.9229 L1059.85318,396.48484 A17.80514,17.80514 0 0 0 1057.96722,396.58623 C1053.03261,397.18109 1049.71358,403.75155 1049.7609,408.27382 L1049.7609,408.27382 C1049.7609,412.85016 1053.35708,415.62165 1058.04833,415.53377 Q1058.94738,415.49322 1059.85318,415.49322 L1059.85318,429.08029 L1057.2642,429.08029 C1052.18764,428.91129 1048.04392,424.72702 1048.098,419.91408 L1048.098,407.95611 C1048.10476,403.1905 1051.51843,395.20049 1057.05465,394.15949 z" class="cls-41"/>
        </g>
        <g class="cabin">
            <path d="M1120.35282,195.95727 A16.70331,16.70331 0 0 0 1117.55429,195.72068 L1117.55429,198.28262 A17.80514,17.80514 0 0 1 1119.44026,198.38401 C1124.37486,198.97887 1127.69389,205.54933 1127.64658,210.0716 L1127.64658,210.0716 C1127.64658,214.64794 1124.0504,217.41943 1119.35914,217.33155 Q1118.46009,217.29099 1117.55429,217.29099 L1117.55429,230.87806 L1120.14327,230.87806 C1125.21983,230.70907 1129.36355,226.52479 1129.30947,221.71186 L1129.30947,209.76065 C1129.29595,205.00179 1125.88904,197.00503 1120.35282,195.95727 z" class="cls-40"/>
            <path d="M1114.75576,195.95727 A16.70331,16.70331 0 0 1 1117.55429,195.72068 L1117.55429,198.28262 A17.80514,17.80514 0 0 0 1115.66832,198.38401 C1110.73372,198.97887 1107.41469,205.54933 1107.462,210.0716 L1107.462,210.0716 C1107.462,214.64794 1111.05818,217.41943 1115.74944,217.33155 Q1116.64849,217.29099 1117.55429,217.29099 L1117.55429,230.87806 L1114.96531,230.87806 C1109.88875,230.70907 1105.74503,226.52479 1105.79911,221.71186 L1105.79911,209.76065 C1105.80587,205.00179 1109.21278,197.00503 1114.75576,195.95727 z" class="cls-41"/>
        </g>
        <g class="cabin">
            <path d="M1178.16208,212.72817 A16.70331,16.70331 0 0 0 1175.36355,212.49158 L1175.36355,215.05352 A17.80514,17.80514 0 0 1 1177.24952,215.15492 C1182.18413,215.74977 1185.50316,222.32024 1185.45584,226.8425 L1185.45584,226.8425 C1185.45584,231.41884 1181.85966,234.19033 1177.1684,234.10246 Q1176.26936,234.0619 1175.36355,234.0619 L1175.36355,247.64897 L1177.95253,247.64897 C1183.02909,247.47998 1187.17281,243.2957 1187.11873,238.48277 L1187.11873,226.52479 C1187.11197,221.76594 1183.70507,213.77593 1178.16208,212.72817 z" class="cls-40"/>
            <path d="M1172.57178,212.72817 A16.70331,16.70331 0 0 1 1175.37031,212.49158 L1175.37031,215.05352 A17.80514,17.80514 0 0 0 1173.48435,215.15492 C1168.54974,215.74977 1165.23071,222.32024 1165.27803,226.8425 L1165.27803,226.8425 C1165.27803,231.41884 1168.87421,234.19033 1173.56546,234.10246 Q1174.46451,234.0619 1175.37031,234.0619 L1175.37031,247.64897 L1172.78133,247.64897 C1167.70477,247.47998 1163.56105,243.2957 1163.61513,238.48277 L1163.61513,226.52479 C1163.62189,221.76594 1167.0288,213.77593 1172.57178,212.72817 z" class="cls-41"/>
        </g>
        <g class="cabin">
            <path d="M1221.16076,266.25852 A16.70331,16.70331 0 0 0 1218.36223,266.02193 L1218.36223,268.58387 A17.80514,17.80514 0 0 1 1220.2482,268.68527 C1225.18281,269.28012 1228.50184,275.85059 1228.45452,280.37285 L1228.45452,280.37285 C1228.45452,284.94919 1224.85834,287.72068 1220.16708,287.63281 Q1219.26804,287.59225 1218.36223,287.59225 L1218.36223,301.17932 L1220.95797,301.17932 C1226.03453,301.01033 1230.17825,296.82605 1230.12417,292.01312 L1230.12417,280.02135 C1230.1039,275.26249 1226.69699,267.26572 1221.16076,266.25852 z" class="cls-40"/>
            <path d="M1215.55018,266.25852 A16.70331,16.70331 0 0 1 1218.34871,266.02193 L1218.34871,268.58387 A17.80514,17.80514 0 0 0 1216.46275,268.68527 C1211.52814,269.28012 1208.20911,275.85059 1208.25643,280.37285 L1208.25643,280.37285 C1208.25643,284.94919 1211.85261,287.72068 1216.54387,287.63281 Q1217.44291,287.59225 1218.34871,287.59225 L1218.34871,301.17932 L1215.75974,301.17932 C1210.68317,301.01033 1206.53946,296.82605 1206.59353,292.01312 L1206.59353,280.02135 C1206.61381,275.26249 1210.02072,267.26572 1215.55018,266.25852 z" class="cls-41"/>
        </g>
        <g class="cabin">
            <path d="M1178.08773,394.01753 A16.70331,16.70331 0 0 0 1175.2892,393.78094 L1175.2892,396.34288 A17.80514,17.80514 0 0 1 1177.17516,396.44428 C1182.10977,397.03914 1185.4288,403.6096 1185.38148,408.13186 L1185.38148,408.13186 C1185.38148,412.7082 1181.7853,415.4797 1177.09405,415.39182 Q1176.195,415.35126 1175.2892,415.35126 L1175.2892,428.93833 L1177.87817,428.93833 C1182.95474,428.76934 1187.09845,424.58506 1187.04438,419.77213 L1187.04438,407.80064 C1187.03762,403.03502 1183.63071,395.04501 1178.08773,394.01753 z" class="cls-40"/>
            <path d="M1172.49067,394.01753 A16.70331,16.70331 0 0 1 1175.2892,393.78094 L1175.2892,396.34288 A17.80514,17.80514 0 0 0 1173.40323,396.44428 C1168.46862,397.03914 1165.14959,403.6096 1165.19691,408.13186 L1165.19691,408.13186 C1165.19691,412.7082 1168.79309,415.4797 1173.48435,415.39182 Q1174.38339,415.35126 1175.2892,415.35126 L1175.2892,428.93833 L1172.70022,428.93833 C1167.62366,428.76934 1163.47994,424.58506 1163.53401,419.77213 L1163.53401,407.80064 C1163.54753,403.03502 1166.95444,395.04501 1172.49067,394.01753 z" class="cls-41"/>
        </g>
        <g class="cabin">
            <path d="M1120.42718,410.91687 A18.5352,18.5352 0 0 0 1117.47993,410.68028 L1117.47993,413.24222 C1118.10859,413.24222 1118.88596,413.24222 1119.50785,413.34362 C1124.44246,413.93848 1127.76149,420.50894 1127.71417,425.0312 L1127.71417,425.0312 C1127.71417,429.60755 1124.11799,432.37904 1119.42674,432.29116 C1118.82512,432.29116 1118.07479,432.2506 1117.47317,432.2506 L1117.47317,445.83767 L1120.23791,445.83767 C1125.31447,445.66868 1129.45819,441.4844 1129.40411,436.67147 L1129.40411,424.72026 C1129.37707,419.9614 1125.9634,411.96463 1120.42718,410.91687 z" class="cls-40" id="svg_68"/>
            <path d="M1114.6814,410.91687 A16.70331,16.70331 0 0 1 1117.47993,410.68028 L1117.47993,413.24222 A17.80514,17.80514 0 0 0 1115.59397,413.34362 C1110.65936,413.93848 1107.34033,420.50894 1107.38765,425.0312 L1107.38765,425.0312 C1107.38765,429.60755 1110.98383,432.37904 1115.67508,432.29116 Q1116.57413,432.2506 1117.47993,432.2506 L1117.47993,445.83767 L1114.89095,445.83767 C1109.81439,445.66868 1105.67067,441.4844 1105.72475,436.67147 L1105.72475,424.72026 C1105.73151,419.9614 1109.13842,411.96463 1114.6814,410.91687 z" class="cls-41"/>
        </g>
    </g>
    <g id="mask">
        <path d="M1117.71652,287.39622 A15.73667,15.73667 0 0 1 1117.71652,318.86955 L1117.71652,287.39622 z" class="cls-35"/>
        <path d="M1117.62865,287.39622 A15.73667,15.73667 0 0 0 1117.62865,318.86955 L1117.62865,287.39622 z" class="cls-23"/>
    </g>
   </g>
 </g>
</svg>